<svg id="Capa_1" enable-background="new 0 0 512 512" height="512" viewBox="0 0 512 512" width="512" xmlns="http://www.w3.org/2000/svg"><g><circle cx="256" cy="254.849" fill="#c35ac7" r="245"/><g><path d="m321.522 499.95c-6.129-22.15-7.179-44.964-3.036-65.976.387-1.96 2.544-3.001 4.319-2.086 6.694 3.454 14.973 5.28 23.938 5.279 9.607 0 20.097-2.074 30.333-5.997l7.279-2.818-7.104-.197c-1.299-.036-2.427-.905-2.794-2.151l-3.646-12.379c-5.569-1.219-10.186-5.082-12.345-10.577-1.619-4.119-1.427-8.733.211-12.845.374-.938 1.282-1.554 2.292-1.554h.472c4.42 0 8.611 1.666 11.804 4.691l11.776-8.066c-1.69-4.127-1.712-8.683-.062-12.828l.132-.331c.37-.927 1.262-1.541 2.26-1.554l.507-.007c5.671 0 10.968 2.788 14.168 7.458 2.473 3.611 3.462 7.985 2.787 12.32l10.226 7.871c1.03.793 1.432 2.158.997 3.383l-2.383 6.697 5.259-5.77c14.594-16.123 21.987-34.476 20.279-50.344-.214-1.987 1.537-3.623 3.505-3.275 21.089 3.729 41.981 12.951 60.42 26.669 1.907 1.419 1.485 4.386-.741 5.217h-.001c-3.87 1.445-7.556 3.357-10.951 5.683-14.098 9.657-22.636 26.106-23.424 45.13-.078 1.889-1.863 3.236-3.701 2.792-1.805-.436-3.653-.657-5.494-.657-6.745 0-13.26 2.953-17.874 8.102-4.645 5.181-6.782 11.858-6.021 18.801l.709 6.455c.262 2.382-2.238 4.094-4.365 2.99l-5.764-2.993c-3.516-1.826-7.267-2.751-11.146-2.751-6.513 0-12.874 2.689-17.452 7.377-3.569 3.653-5.813 8.252-6.491 13.299-.252 1.873-2.152 3.049-3.94 2.44-6.837-2.327-13.768-3.507-20.602-3.507-10.955 0-21.311 3.126-29.946 9.042-3.392 2.323-6.506 5.068-9.256 8.159-1.581 1.777-4.5 1.098-5.134-1.192z" fill="#5d3f9a"/><g><path d="m337.642 436.494c-5.448-.814-10.481-2.359-14.836-4.606-1.775-.916-3.933.126-4.319 2.085-4.143 21.012-3.093 43.826 3.036 65.976.634 2.291 3.553 2.97 5.133 1.194 2.75-3.09 5.864-5.835 9.256-8.159 1.248-.854 2.535-1.644 3.851-2.381-4.137-18.218-4.866-36.702-2.121-54.109z" fill="#4b3087"/></g></g><g><circle cx="379.5" cy="86.349" fill="#fed402" r="67.5"/><g fill="#fac600"><path d="m354.385 62.822h-7.831c-7.448 0-13.487 6.038-13.487 13.486s6.038 13.487 13.487 13.487h5.542c-.058-1.142-.096-2.29-.096-3.446 0-8.332 1.518-16.307 4.278-23.675-.62.087-1.249.148-1.893.148z"/><path d="m354.385 35.849c5.606 0 10.411 3.422 12.446 8.291 8.327-10.377 19.654-18.244 32.669-22.276-6.32-1.958-13.037-3.014-20-3.014-17.181 0-32.853 6.43-44.768 17h19.653z"/><path d="m359.242 116.768h-39.994c11.126 21.993 33.92 37.081 60.252 37.081 6.963 0 13.68-1.056 20-3.014-17.58-5.446-32.075-17.889-40.258-34.067z"/></g><path d="m407.026 89.795h-60.472c-7.448 0-13.486-6.038-13.486-13.487s6.038-13.487 13.486-13.487h7.831c7.448 0 13.487-6.038 13.487-13.487 0-7.448-6.038-13.487-13.487-13.487h-92.666c-7.448 0-13.487 6.038-13.487 13.487 0 7.448 6.038 13.487 13.487 13.487h23.493c7.448 0 13.487 6.038 13.487 13.487s-6.038 13.487-13.487 13.487h-48.726c-7.448 0-13.487 6.038-13.487 13.487 0 7.448 6.038 13.487 13.487 13.487h170.539c7.448 0 13.487-6.038 13.487-13.487.001-7.449-6.038-13.487-13.486-13.487z" fill="#e387dd"/></g><g fill="#e387dd"><path d="m158.514 115.876h-49.752c-7.448 0-13.487 6.038-13.487 13.487 0 7.448 6.038 13.487 13.487 13.487h49.752c7.448 0 13.487-6.038 13.487-13.487-.001-7.449-6.039-13.487-13.487-13.487z"/><path d="m274 434.362c0-7.448-6.038-13.487-13.487-13.487h-36.752c-7.448 0-13.487 6.038-13.487 13.487 0 7.448 6.038 13.487 13.487 13.487h36.752c7.449 0 13.487-6.038 13.487-13.487z"/><path d="m173 403.362c0-7.448-6.038-13.487-13.487-13.487h-25.027c-7.448 0-13.487 6.038-13.487 13.487 0 7.448 6.038 13.487 13.487 13.487h25.027c7.449 0 13.487-6.038 13.487-13.487z"/></g><g><g><g fill="#5d3f9a"><path d="m210.5 290.849c0-18.407 3.81-35.96 11.023-50.997-38.837-9.203-71.805-33.604-92.297-66.593-.742-1.194-2.202-1.738-3.533-1.286-67.292 22.835-115.127 62.815-125.618 109.584-.551 2.457 2.021 4.467 4.272 3.338 7.44-3.728 15.957-5.849 25.014-5.849 29.062 0 52.622 21.773 52.622 48.632 0 .537-.01 1.071-.029 1.603-.092 2.555 2.771 4.104 4.812 2.564 9.063-6.837 20.638-10.938 33.25-10.938 26.347 0 48.159 17.897 52.006 41.253.37 2.248 3.003 3.292 4.801 1.893 9.149-7.118 20.953-11.412 33.849-11.412 6.743 0 13.185 1.179 19.108 3.315-12.06-16.561-19.28-39.798-19.28-65.107z"/><path d="m511.925 281.557c-10.49-46.769-58.326-86.748-125.617-109.584-1.331-.452-2.792.092-3.533 1.286-20.492 32.989-53.46 57.39-92.297 66.593 7.213 15.037 11.023 32.59 11.023 50.997 0 25.309-7.22 48.547-19.281 65.107 5.923-2.137 12.365-3.315 19.108-3.315 12.896 0 24.7 4.294 33.849 11.412 1.798 1.399 4.43.354 4.801-1.893 3.847-23.356 25.659-41.253 52.006-41.253 12.612 0 24.187 4.101 33.251 10.938 2.041 1.54 4.904-.009 4.812-2.564-.019-.532-.029-1.067-.029-1.603 0-26.859 23.56-48.632 52.622-48.632 9.058 0 17.575 2.122 25.014 5.849 2.25 1.128 4.822-.881 4.271-3.338z"/></g><g><path d="m146.378 195.792c-6.396-6.936-12.148-14.477-17.152-22.533-.742-1.194-2.202-1.738-3.533-1.286-67.292 22.835-115.127 62.815-125.618 109.584-.551 2.457 2.021 4.467 4.272 3.338 7.44-3.728 15.957-5.849 25.014-5.849 2.991 0 5.92.243 8.775.686 17.542-34.975 56.559-64.651 108.242-83.94z" fill="#4b3087"/></g><path d="m258.351 259.565c-.688.5-1.5.764-2.351.764s-1.663-.264-2.351-.764l-31.627-22.978c-7.866 15.15-12.522 33.926-12.522 54.262 0 40.721 18.665 75.189 44.402 86.807 1.335.603 2.861.603 4.196 0 25.737-11.617 44.402-46.086 44.402-86.807 0-20.336-4.656-39.112-12.522-54.262z" fill="#7e5fc9"/><path d="m240 290.849c0-12.856 1.868-25.083 5.224-36.168l-23.655-17.187c-7.587 14.991-12.069 33.419-12.069 53.355 0 40.721 18.665 75.189 44.402 86.807 1.335.603 2.861.603 4.196 0 4.638-2.094 9.041-4.939 13.152-8.42-18.701-15.834-31.25-45.004-31.25-78.387z" fill="#704fb9"/><g><path d="m214.62 196.425 6.626-20.394c2.109-6.496 8.117-10.86 14.947-10.86h5.398c-1.881-10.183-8.145-18.827-16.776-23.888-.972-.57-2.166-.57-3.138 0-10.393 6.094-17.376 17.376-17.376 30.295-.001 9.71 3.945 18.494 10.319 24.847z" fill="#7e5fc9"/><path d="m219.652 177.7c-.351-1.989-.543-4.033-.543-6.123 0-10.313 4.459-19.573 11.541-25.994-1.79-1.622-3.739-3.072-5.835-4.301-.972-.57-2.166-.57-3.138 0-10.393 6.094-17.376 17.376-17.376 30.295 0 9.3 3.632 17.74 9.537 24.019z" fill="#704fb9"/><path d="m275.807 165.171c6.83 0 12.838 4.364 14.947 10.86l6.626 20.394c6.373-6.353 10.32-15.137 10.32-24.847 0-12.919-6.983-24.2-17.376-30.295-.972-.57-2.166-.57-3.138 0-8.631 5.061-14.895 13.705-16.776 23.888z" fill="#7e5fc9"/><path d="m275.807 164.171c3.919 0 7.59 1.374 10.494 3.719.886-8.463 4.789-16.021 10.603-21.606-1.987-1.909-4.188-3.598-6.581-5.001-.972-.57-2.166-.57-3.138 0-8.348 4.895-14.486 13.14-16.583 22.888z" fill="#704fb9"/><path d="m258.939 260.375 45.809-33.282c1.76-1.279 2.497-3.546 1.824-5.615l-14.867-45.756c-2.238-6.888-8.656-11.551-15.899-11.551h-39.614c-7.242 0-13.661 4.663-15.899 11.551l-14.867 45.756c-.672 2.069.064 4.336 1.824 5.615l45.809 33.282c1.755 1.273 4.128 1.273 5.88 0z" fill="#5d3f9a"/><path d="m228.071 222.771c-1.76-1.279-2.497-3.546-1.824-5.615l14.867-45.756c.927-2.852 2.578-5.313 4.699-7.229h-9.619c-7.242 0-13.661 4.663-15.899 11.551l-14.867 45.756c-.672 2.069.064 4.336 1.824 5.615l45.809 33.282c1.752 1.273 4.125 1.273 5.878 0l10.444-7.588z" fill="#4b3087"/></g></g><g><circle cx="237.92" cy="200.589" fill="#fed402" r="12.053"/><circle cx="237.92" cy="200.589" fill="#5d3f9a" r="5.022"/><circle cx="274.08" cy="200.589" fill="#fed402" r="12.053"/><circle cx="274.08" cy="200.589" fill="#5d3f9a" r="5.022"/></g><path d="m258.61 229.4 5.852-10.137c1.16-2.009-.29-4.52-2.61-4.52h-11.705c-2.32 0-3.769 2.511-2.61 4.52l5.852 10.137c1.161 2.009 4.061 2.009 5.221 0z" fill="#7e5fc9"/></g></g></svg>