<?xml version="1.0" encoding="UTF-8"?>
<svg xmlns="http://www.w3.org/2000/svg" id="Layer_1" data-name="Layer 1" viewBox="0 0 512 512" width="512" height="512"><path d="M224,111.41V68.361a62.065,62.065,0,0,0-40,58.561V136h15.41A24.59,24.59,0,0,0,224,111.41Z" style="fill:#a05307"/><path d="M288,69.239V111.41A24.59,24.59,0,0,0,312.59,136H328v-9.079C328,101.112,311.54,78.944,288,69.239Z" style="fill:#a05307"/><path d="M288,111.41V69.239A69.725,69.725,0,0,0,261.378,64H248a66.938,66.938,0,0,0-24,4.361v43.05A24.59,24.59,0,0,1,199.41,136H184V432c0,36.229,27.771,56,64,56h16c36.229,0,64-19.771,64-56V136H312.59A24.59,24.59,0,0,1,288,111.41Z" style="fill:#efab78"/><path d="M184,126.921V432c0,27.668,16.207,45.724,40,52.719V68.361A62.065,62.065,0,0,0,184,126.921Z" style="fill:#fcf4ed;opacity:0.30000000000000004"/><path d="M127.419,424H113.951C87.229,424,94.779,301.411,120,264c40.511-60.09,105.982-86.477,136-104V295.419A128.581,128.581,0,0,1,127.419,424Z" style="fill:#c16808"/><path d="M384.581,424h13.468c26.722,0,19.172-122.589-6.049-160-40.511-60.09-105.982-86.477-136-104V295.419A128.581,128.581,0,0,0,384.581,424Z" style="fill:#a05307"/><path d="M256,160c-30.018,17.523-95.489,43.91-136,104-25.221,37.411-32.771,160-6.049,160h12.906L144,368S160,256,256,160Z" style="fill:#fcf4ed;opacity:0.30000000000000004"/><path d="M256,160V295.419a128.577,128.577,0,0,0,124.251,128.5C374.382,397.2,368,368,368,368S352,256,256,160Z" style="fill:#824208"/><path d="M398.634,259.528C380.72,232.958,358.25,212.861,336,197.146V126.921c0-33-23.834-60.8-56-68.685V35.026A19.048,19.048,0,0,1,299.026,16H312V0H299.026A35.066,35.066,0,0,0,264,35.026V56.063c-.872-.029-1.743-.063-2.622-.063H248V35.026A35.066,35.066,0,0,0,212.974,0H200V16h12.974A19.048,19.048,0,0,1,232,35.026V57.708c-32.421,6.989-56,34.881-56,69.213v70.226c-22.25,15.715-44.72,35.812-62.634,62.382-10.681,15.843-19.148,46.408-22.651,81.764C89.4,354.511,86,399.278,97.2,420.338,102.329,429.977,109.14,432,113.951,432h13.468A135.894,135.894,0,0,0,176,423.063V432c0,19.725,7.373,36.238,21.321,47.755C210.192,490.383,227.718,496,248,496v16h16V496c20.282,0,37.808-5.617,50.679-16.245C328.627,468.238,336,451.725,336,432v-8.937A135.894,135.894,0,0,0,384.581,432h13.468c4.812,0,11.622-2.023,16.749-11.662,11.2-21.06,7.8-65.827,6.487-79.046C417.782,305.937,409.314,275.371,398.634,259.528ZM320,126.921V128h-7.41A16.609,16.609,0,0,1,296,111.41V82.638C310.539,92.643,320,108.763,320,126.921ZM207.855,88.09A53.59,53.59,0,0,1,216,81.428V111.41A16.609,16.609,0,0,1,199.41,128H192v-1.079A54.4,54.4,0,0,1,207.855,88.09ZM192,144h7.41A32.627,32.627,0,0,0,232,111.41V74.15A60.014,60.014,0,0,1,248,72h13.378A61.932,61.932,0,0,1,280,74.857V111.41A32.627,32.627,0,0,0,312.59,144H320v42.506c-15.11-9.478-29.567-17.106-41.787-23.547-7.045-3.713-13.128-6.919-18.18-9.868l-.029-.014-.021-.014c-.14-.081-.288-.14-.431-.211-.166-.083-.329-.174-.5-.244s-.353-.122-.53-.181c-.155-.052-.307-.113-.464-.155-.18-.048-.364-.075-.547-.11-.159-.031-.316-.071-.476-.092-.176-.023-.353-.025-.53-.036S256.169,152,256,152s-.339.02-.509.031-.353.013-.528.036-.326.063-.489.095c-.178.035-.357.061-.534.107s-.326.108-.489.163-.339.1-.5.173-.344.166-.515.252c-.138.069-.281.126-.416.2l-.021.014-.029.014c-5.053,2.949-11.138,6.157-18.184,9.87-12.218,6.44-26.674,14.068-41.783,23.545ZM113.951,416c-.293,0-1.359-.8-2.623-3.176-5.952-11.19-7.793-38.65-4.691-69.955,3.205-32.349,10.867-60.856,20-74.4,25.812-38.288,62.511-62.624,92.93-79.668a432.634,432.634,0,0,0-62.992,108.226c-16.17,40.425-20.323,68.657-20.492,69.839l15.839,2.27c.039-.274,4.146-27.906,19.711-66.67A414.665,414.665,0,0,1,248,180.029v115.39A120.718,120.718,0,0,1,127.419,416ZM256,341.479A136.65,136.65,0,0,0,280.71,384H231.29A136.65,136.65,0,0,0,256,341.479ZM264,480H248c-31.756,0-47.778-14.67-53.489-32H317.489C311.778,465.33,295.756,480,264,480Zm56-48H192V415.738A137.139,137.139,0,0,0,215.16,400H296.84A137.139,137.139,0,0,0,320,415.738Zm80.672-19.176c-1.264,2.376-2.33,3.176-2.623,3.176H384.581A120.718,120.718,0,0,1,264,295.419V180.029a414.665,414.665,0,0,1,76.37,122.438c15.565,38.764,19.672,66.4,19.711,66.67l15.839-2.27c-.169-1.182-4.322-29.414-20.492-69.839A432.645,432.645,0,0,0,292.436,188.8c30.419,17.045,67.118,41.381,92.931,79.669,9.13,13.541,16.792,42.049,20,74.4C408.465,374.174,406.624,401.634,400.672,412.824Z"/></svg>
