<?xml version="1.0" encoding="iso-8859-1"?>
<!-- Generator: Adobe Illustrator 19.0.0, SVG Export Plug-In . SVG Version: 6.00 Build 0)  -->
<svg version="1.1" id="Capa_1" xmlns="http://www.w3.org/2000/svg" xmlns:xlink="http://www.w3.org/1999/xlink" x="0px" y="0px"
	 viewBox="0 0 512.005 512.005" style="enable-background:new 0 0 512.005 512.005;" xml:space="preserve">
<g>
	<path style="fill:#52B4DE;" d="M238.053,181.359l-45.237-36.855C143.885,104.641,91.007,69.886,35.006,40.781l0,0
		C21.562,33.795,5.794,44.743,7.643,59.78c8.23,66.927,51.956,124.196,114.351,149.767l22.446,9.199l-0.129,0.12
		c-27.515,25.511-52.1,54.009-73.301,84.967l0,0c-8.667,12.655,0.957,29.752,16.272,28.908l0,0
		c50.548-2.786,95.93-31.884,119.557-76.657l21.328-40.419L238.053,181.359z"/>
	<path style="fill:#52B4DE;" d="M273.948,181.359l45.237-36.855c48.93-39.863,101.808-74.619,157.809-103.723l0,0
		c13.443-6.986,29.212,3.962,27.363,18.999c-8.23,66.927-51.956,124.196-114.351,149.767l-22.446,9.199l0.129,0.12
		c27.515,25.511,52.1,54.009,73.301,84.967l0,0c8.667,12.655-0.957,29.752-16.272,28.908l0,0
		c-50.548-2.786-95.93-31.884-119.557-76.657l-21.328-40.419L273.948,181.359z"/>
</g>
<path style="opacity:0.1;enable-background:new    ;" d="M345.579,263.702c0.443-0.885,0.908-1.809,1.389-2.768
	c13.015-25.893,40.096-79.771,30.565-132.891l-0.028-0.152c-1.419-7.646-3.833-15.135-6.881-22.368
	c-17.58,12.39-34.746,25.382-51.44,38.982l-45.237,36.855l9.884,34.305l21.328,40.419c14.432,27.351,36.992,48.835,63.879,62.062
	c-4.171-10.118-8.468-19.353-12.354-27.7C352.458,281.366,346.821,269.261,345.579,263.702z"/>
<path style="opacity:0.1;enable-background:new    ;" d="M192.815,144.505c-16.694-13.601-33.859-26.592-51.44-38.982
	c-3.048,7.234-5.461,14.723-6.881,22.369l-0.027,0.151c-9.533,53.118,17.548,106.996,30.564,132.89
	c0.483,0.959,0.947,1.882,1.39,2.769c-1.242,5.56-6.878,17.665-11.105,26.745c-3.886,8.346-8.183,17.581-12.354,27.7
	c26.888-13.227,49.446-34.712,63.878-62.062l21.328-40.419l9.884-34.305L192.815,144.505z"/>
<path style="fill:#64D19B;" d="M148.386,410.477c0,17.232,17.37,47.041,30.376,60.534c3.009,3.122,7.983,3.122,10.992,0
	c13.005-13.493,30.376-43.302,30.376-60.534c0,17.232,17.37,47.041,30.376,60.534c3.009,3.122,7.983,3.122,10.992,0
	c13.005-13.493,30.376-43.302,30.376-60.534c0,17.232,17.37,47.041,30.376,60.534c3.009,3.122,7.983,3.122,10.992,0
	c13.005-13.493,30.376-43.302,30.376-60.534c-1.158-79.979-53.669-133.062-42.668-155.422
	c11.001-22.359,39.773-74.036,31.087-122.436c-4.666-25.146-24.829-50.932-38.223-68.047c-4.981-6.364-14.606-6.364-19.587,0
	c-13.394,17.115-33.557,42.902-38.223,68.047c-4.666-25.146-24.829-50.932-38.223-68.047c-4.981-6.364-14.606-6.364-19.587,0
	c-13.394,17.115-33.557,42.902-38.223,68.047c-8.686,48.4,20.085,100.076,31.087,122.436
	C202.055,277.414,149.544,330.498,148.386,410.477z"/>
<path style="opacity:0.1;enable-background:new    ;" d="M216.993,244.173c-27.151-64.176-28.133-130.131-2.999-182.812
	c-5.139-2.84-11.897-1.782-15.804,3.21c-13.394,17.115-33.556,42.902-38.223,68.047c-8.685,48.4,20.085,100.076,31.087,122.436
	c11.002,22.359-41.51,75.444-42.668,155.422c0,17.232,17.37,47.041,30.376,60.534c3.009,3.122,7.983,3.122,10.992,0
	c6.07-6.298,13.089-16.15,18.851-26.619C161.999,357.107,244.896,310.132,216.993,244.173z"/>
<g style="opacity:0.3;">
	<circle style="fill:#FFFFFF;" cx="319.627" cy="352.958" r="6.915"/>
	<circle style="fill:#FFFFFF;" cx="330.077" cy="381.969" r="6.915"/>
	<circle style="fill:#FFFFFF;" cx="305.797" cy="199.505" r="6.915"/>
	<circle style="fill:#FFFFFF;" cx="326.537" cy="172.615" r="6.915"/>
	<circle style="fill:#FFFFFF;" cx="298.876" cy="161.824" r="6.915"/>
</g>
<path d="M500.688,35.862c-8.051-5.59-18.455-6.252-27.153-1.735c-42.128,21.895-82.884,47.222-121.278,75.355
	c-8.693-19.053-22.485-36.685-32.541-49.533c-3.806-4.861-9.528-7.65-15.7-7.65c-6.172,0-11.895,2.789-15.7,7.651
	c-9.967,12.736-23.611,30.169-32.316,49.029c-8.705-18.86-22.349-36.294-32.316-49.03c-3.806-4.861-9.528-7.65-15.7-7.65
	s-11.895,2.789-15.7,7.651c-10.052,12.844-23.841,30.47-32.538,49.535C121.351,81.35,80.595,56.023,38.465,34.127
	c-8.697-4.519-19.101-3.854-27.152,1.735c-8.052,5.59-12.31,15.105-11.114,24.834c8.55,69.531,54.13,129.228,118.953,155.791
	l11.71,4.8c-24.545,23.81-46.725,50.106-66.037,78.308c-5.636,8.23-6.098,18.741-1.206,27.434
	c4.651,8.263,13.218,13.242,22.609,13.242c0.486,0,0.978-0.014,1.469-0.041c27.956-1.541,54.393-10.59,76.99-26.021
	c-9.253,20.895-19.062,46.731-22.503,76.356c-0.477,4.114,2.471,7.837,6.585,8.315c4.112,0.482,7.837-2.471,8.315-6.585
	c4.102-35.311,17.639-64.385,28.517-87.747c10.772-23.137,18.555-39.853,12.183-52.804c-0.867-1.763-1.844-3.706-2.904-5.814
	c-12.265-24.402-35.096-69.823-27.538-111.941c0.624-3.363,1.57-6.757,2.757-10.155c0.017-0.047,0.033-0.094,0.049-0.141
	c7.089-20.169,22.921-40.409,33.948-54.496c1.291-1.65,2.99-1.896,3.888-1.896c0.897,0,2.597,0.246,3.888,1.896
	c12.909,16.495,32.418,41.424,36.755,64.793c0.659,3.554,3.76,6.132,7.374,6.132s6.715-2.578,7.374-6.132
	c4.337-23.37,23.846-48.298,36.755-64.792c1.291-1.65,2.99-1.896,3.888-1.896c0.897,0,2.597,0.246,3.888,1.896
	c11.014,14.072,26.824,34.281,33.92,54.401c0.033,0.102,0.068,0.204,0.106,0.305c1.171,3.361,2.105,6.719,2.722,10.044
	c7.565,42.161-15.265,87.583-27.53,111.984c-1.06,2.108-2.037,4.052-2.904,5.814c-6.373,12.952,1.41,29.669,12.183,52.805
	c12.269,26.351,29.07,62.431,29.715,105.978c-0.038,14.016-15.563,42.09-28.275,55.28c-0.055,0.057-0.14,0.056-0.192,0.001
	c-12.727-13.207-28.275-41.333-28.275-55.331c0-4.143-3.357-7.5-7.5-7.5c-4.143,0-7.5,3.357-7.5,7.5
	c0,13.997-15.548,42.124-28.275,55.33c-0.055,0.057-0.14,0.056-0.192,0.001c-12.727-13.207-28.276-41.334-28.276-55.331
	c0-4.143-3.357-7.5-7.5-7.5s-7.5,3.357-7.5,7.5c0,13.998-15.547,42.124-28.274,55.33c-0.055,0.057-0.14,0.056-0.192,0.001
	c-7.89-8.188-16.985-22.24-22.635-34.971c-1.68-3.787-6.113-5.491-9.897-3.813c-3.786,1.681-5.493,6.111-3.814,9.897
	c6.39,14.398,16.417,29.823,25.547,39.296c2.882,2.989,6.751,4.636,10.896,4.636c4.145,0,8.014-1.647,10.896-4.637
	c8.146-8.452,18.225-23.31,24.975-38.132c6.75,14.821,16.828,29.68,24.977,38.133c2.882,2.989,6.751,4.636,10.895,4.636
	c4.145,0,8.014-1.647,10.896-4.637c8.147-8.453,18.226-23.31,24.976-38.132c6.749,14.821,16.828,29.68,24.976,38.133
	c2.882,2.989,6.751,4.636,10.896,4.636s8.014-1.647,10.897-4.637c13.56-14.07,32.476-45.887,32.476-65.739
	c0-0.036,0-0.072-0.001-0.108c-0.554-38.305-12.45-70.573-23.795-96.156c22.595,15.428,49.031,24.476,76.984,26.017
	c0.492,0.027,0.982,0.041,1.47,0.041c9.39,0,17.957-4.979,22.608-13.242c4.892-8.691,4.43-19.203-1.205-27.433
	c-19.312-28.2-41.49-54.495-66.038-78.309l11.71-4.8c32.454-13.299,60.717-35.174,81.735-63.256
	c2.481-3.316,1.806-8.017-1.511-10.499c-3.317-2.481-8.016-1.804-10.499,1.511c-19.392,25.912-45.47,46.094-75.414,58.365
	l-22.445,9.199c-2.37,0.972-4.081,3.086-4.536,5.607c-0.455,2.521,0.408,5.1,2.29,6.84l0.12,0.111
	c27.066,25.095,51.36,53.256,72.213,83.705c2.419,3.531,2.609,7.867,0.51,11.599c-2.1,3.731-5.922,5.807-10.181,5.582
	c-35.512-1.958-68.31-17.352-92.512-43.371c-4.405-10.435-7.087-19.152-4.941-23.515c0.851-1.728,1.809-3.634,2.847-5.701
	c13.05-25.963,37.342-74.29,28.885-121.415c-0.443-2.387-1.016-4.771-1.691-7.147c38.773-28.689,80.035-54.473,122.738-76.667
	c3.795-1.975,8.163-1.695,11.678,0.746c3.516,2.44,5.303,6.434,4.78,10.681c-2.12,17.239-6.721,34.035-13.674,49.919
	c-1.661,3.795,0.068,8.217,3.862,9.878c3.799,1.663,8.218-0.068,9.878-3.862c7.537-17.217,12.524-35.421,14.822-54.104
	C512.997,50.967,508.739,41.452,500.688,35.862z M181.476,252.665c1.039,2.067,1.997,3.973,2.848,5.701
	c2.146,4.361-0.537,13.078-4.941,23.515c-24.202,26.02-57,41.413-92.511,43.371c-4.261,0.235-8.081-1.85-10.181-5.582
	c-2.101-3.73-1.91-8.067,0.51-11.6c20.851-30.448,45.147-58.609,72.203-83.696l0.129-0.119c1.882-1.739,2.745-4.318,2.29-6.84
	c-0.455-2.521-2.166-4.636-4.536-5.607l-22.446-9.199C65.03,178.097,22.975,123.019,15.087,58.865
	c-0.523-4.248,1.265-8.241,4.779-10.682c3.516-2.44,7.884-2.72,11.68-0.746c42.703,22.193,83.967,47.979,122.739,76.669
	c-0.68,2.389-1.256,4.787-1.701,7.188C144.135,178.376,168.427,226.703,181.476,252.665z"/>
<g>
</g>
<g>
</g>
<g>
</g>
<g>
</g>
<g>
</g>
<g>
</g>
<g>
</g>
<g>
</g>
<g>
</g>
<g>
</g>
<g>
</g>
<g>
</g>
<g>
</g>
<g>
</g>
<g>
</g>
</svg>
